<svg xmlns="http://www.w3.org/2000/svg" width="912.473" height="634.49" viewBox="0 0 912.473 634.49">
  <g id="Group_5125" data-name="Group 5125" transform="translate(59.682 -134.313)" opacity="0.27">
    <g id="Group_5123" data-name="Group 5123" opacity="0.35" style="mix-blend-mode: screen;isolation: isolate">
      <path id="Path_7984" data-name="Path 7984" d="M257.788,389.245a4.914,4.914,0,0,0-1.029.113l-24.223-41.909a4.879,4.879,0,1,0-8.226-4.8H175.743a4.88,4.88,0,1,0-8.257,4.764l-24.245,41.947a4.891,4.891,0,1,0,0,9.555l24.245,41.947a4.877,4.877,0,1,0,8.257,4.764H224.31a4.881,4.881,0,1,0,8.226-4.8l24.223-41.91a4.889,4.889,0,1,0,1.029-9.668Zm-28.841,49.991a4.879,4.879,0,0,0-4.637,3.392H175.743a4.849,4.849,0,0,0-5.666-3.279L145.832,397.4a4.822,4.822,0,0,0,0-6.533l24.245-41.947a4.849,4.849,0,0,0,5.666-3.279H224.31a4.874,4.874,0,0,0,5.621,3.293l24.237,41.933a4.822,4.822,0,0,0,0,6.533l-24.237,41.933A4.909,4.909,0,0,0,228.947,439.236Z" fill="#86cdd3"/>
      <path id="Path_7985" data-name="Path 7985" d="M355,444.126a4.858,4.858,0,0,0-1.03.113l-24.223-41.91a4.878,4.878,0,1,0-8.225-4.8H272.954a4.88,4.88,0,1,0-8.256,4.765l-24.245,41.947a4.89,4.89,0,1,0,0,9.554L264.7,495.74a4.877,4.877,0,1,0,8.256,4.765h48.568a4.881,4.881,0,1,0,8.225-4.8l24.223-41.91a4.889,4.889,0,1,0,1.03-9.667Zm-28.842,49.991a4.878,4.878,0,0,0-4.636,3.391H272.954a4.855,4.855,0,0,0-5.666-3.279l-24.245-41.947a4.818,4.818,0,0,0,0-6.532L267.288,403.8a4.849,4.849,0,0,0,5.666-3.279h48.568a4.869,4.869,0,0,0,5.621,3.292L351.38,445.75a4.818,4.818,0,0,0,0,6.532l-24.237,41.934A4.919,4.919,0,0,0,326.158,494.117Z" fill="#86cdd3"/>
      <path id="Path_7986" data-name="Path 7986" d="M257.788,276.518a4.914,4.914,0,0,0-1.029.112l-24.223-41.909a4.879,4.879,0,1,0-8.226-4.8H175.743a4.88,4.88,0,1,0-8.257,4.764L143.241,276.63a4.891,4.891,0,1,0,0,9.555l24.245,41.947a4.878,4.878,0,1,0,8.257,4.765H224.31a4.881,4.881,0,1,0,8.226-4.8l24.223-41.91a4.889,4.889,0,1,0,1.029-9.667Zm-28.841,49.99a4.879,4.879,0,0,0-4.637,3.392H175.743a4.849,4.849,0,0,0-5.666-3.279l-24.245-41.947a4.822,4.822,0,0,0,0-6.533L170.077,236.2a4.855,4.855,0,0,0,5.666-3.279H224.31a4.875,4.875,0,0,0,5.621,3.292l24.237,41.933a4.822,4.822,0,0,0,0,6.533l-24.237,41.933A4.909,4.909,0,0,0,228.947,326.508Z" fill="#86cdd3"/>
      <path id="Path_7987" data-name="Path 7987" d="M355,221.637a4.925,4.925,0,0,0-1.03.112L329.747,179.84a4.878,4.878,0,1,0-8.225-4.8H272.954A4.88,4.88,0,1,0,264.7,179.8l-24.245,41.946a4.889,4.889,0,1,0-1.03,9.668,4.851,4.851,0,0,0,1.03-.113L264.7,273.251a4.877,4.877,0,1,0,8.256,4.765h48.568a4.881,4.881,0,1,0,8.225-4.8L353.97,231.3a4.889,4.889,0,1,0,1.03-9.667Zm-28.842,49.99a4.877,4.877,0,0,0-4.636,3.392H272.954a4.849,4.849,0,0,0-5.666-3.279l-24.245-41.947a4.818,4.818,0,0,0,0-6.532l24.245-41.947a4.855,4.855,0,0,0,5.666-3.279h48.568a4.875,4.875,0,0,0,5.621,3.292l24.237,41.934a4.818,4.818,0,0,0,0,6.532l-24.237,41.934A4.919,4.919,0,0,0,326.158,271.627Z" fill="#86cdd3"/>
      <path id="Path_7988" data-name="Path 7988" d="M452.895,389.245a4.924,4.924,0,0,0-1.03.113l-24.223-41.909a4.878,4.878,0,1,0-8.225-4.8H370.849a4.88,4.88,0,1,0-8.256,4.764l-24.245,41.947a4.891,4.891,0,1,0,0,9.555l24.245,41.947a4.877,4.877,0,1,0,8.256,4.764h48.568a4.88,4.88,0,1,0,8.225-4.8l24.223-41.91a4.889,4.889,0,1,0,1.03-9.668Zm-28.842,49.991a4.877,4.877,0,0,0-4.636,3.392H370.849a4.849,4.849,0,0,0-5.666-3.279L340.938,397.4a4.819,4.819,0,0,0,0-6.533l24.245-41.947a4.849,4.849,0,0,0,5.666-3.279h48.568a4.874,4.874,0,0,0,5.621,3.293l24.237,41.933a4.819,4.819,0,0,0,0,6.533l-24.237,41.933A4.919,4.919,0,0,0,424.053,439.236Z" fill="#86cdd3"/>
      <path id="Path_7989" data-name="Path 7989" d="M551.75,444.126a4.858,4.858,0,0,0-1.03.113L526.5,402.329a4.878,4.878,0,1,0-8.225-4.8H469.7a4.88,4.88,0,1,0-8.256,4.765L437.2,444.239a4.889,4.889,0,1,0-1.03,9.667,4.918,4.918,0,0,0,1.03-.112l24.245,41.947a4.877,4.877,0,1,0,8.256,4.764h48.568a4.881,4.881,0,1,0,8.225-4.8l24.223-41.909a4.889,4.889,0,1,0,1.03-9.668Zm-28.842,49.991a4.878,4.878,0,0,0-4.636,3.391H469.7a4.855,4.855,0,0,0-5.666-3.279l-24.245-41.947a4.818,4.818,0,0,0,0-6.532L464.038,403.8a4.849,4.849,0,0,0,5.666-3.279h48.568a4.877,4.877,0,0,0,4.636,3.392,4.991,4.991,0,0,0,.985-.1L548.13,445.75a4.818,4.818,0,0,0,0,6.532l-24.237,41.934A4.919,4.919,0,0,0,522.908,494.117Z" fill="#86cdd3"/>
      <path id="Path_7990" data-name="Path 7990" d="M651.084,611.9a4.917,4.917,0,0,0-1.029.113L625.832,570.1a4.879,4.879,0,1,0-8.226-4.8H569.039a4.88,4.88,0,1,0-8.257,4.764L536.537,612.01a4.89,4.89,0,1,0,0,9.555l24.245,41.947a4.878,4.878,0,1,0,8.257,4.765h48.567a4.881,4.881,0,1,0,8.226-4.8l24.223-41.909a4.889,4.889,0,1,0,1.029-9.668Zm-28.841,49.991a4.878,4.878,0,0,0-4.637,3.392H569.039a4.855,4.855,0,0,0-5.666-3.28l-24.245-41.946a4.822,4.822,0,0,0,0-6.533l24.245-41.947a4.849,4.849,0,0,0,5.666-3.279h48.567a4.874,4.874,0,0,0,5.621,3.293l24.237,41.933a4.822,4.822,0,0,0,0,6.533l-24.237,41.933A4.909,4.909,0,0,0,622.243,661.888Z" fill="#86cdd3"/>
      <path id="Path_7991" data-name="Path 7991" d="M749.751,669.582a4.909,4.909,0,0,0-1.029.112L724.5,627.785a4.879,4.879,0,1,0-8.226-4.8H667.705a4.88,4.88,0,1,0-8.256,4.765L635.2,669.694a4.891,4.891,0,1,0,0,9.555L659.449,721.2a4.877,4.877,0,1,0,8.256,4.765h48.568a4.881,4.881,0,1,0,8.226-4.8l24.222-41.91a4.889,4.889,0,1,0,1.03-9.667Zm-28.842,49.99a4.877,4.877,0,0,0-4.636,3.392H667.705a4.848,4.848,0,0,0-5.665-3.279l-24.245-41.947a4.819,4.819,0,0,0,0-6.532l24.246-41.947a4.854,4.854,0,0,0,5.665-3.279h48.568a4.875,4.875,0,0,0,5.621,3.292l24.237,41.934a4.821,4.821,0,0,0,0,6.532l-24.237,41.934A4.911,4.911,0,0,0,720.909,719.572Z" fill="#86cdd3"/>
      <path id="Path_7992" data-name="Path 7992" d="M551.75,556.854a4.862,4.862,0,0,0-1.03.113L526.5,515.057a4.878,4.878,0,1,0-8.225-4.8H469.7a4.88,4.88,0,1,0-8.256,4.765L437.2,556.967a4.89,4.89,0,1,0,0,9.554l24.245,41.947a4.877,4.877,0,1,0,8.256,4.765h48.568a4.881,4.881,0,1,0,8.225-4.8l24.223-41.91a4.889,4.889,0,1,0,1.03-9.667Zm-28.842,49.99a4.877,4.877,0,0,0-4.636,3.392H469.7a4.849,4.849,0,0,0-5.666-3.279L439.793,565.01a4.818,4.818,0,0,0,0-6.532l24.245-41.947a4.85,4.85,0,0,0,5.666-3.279h48.568a4.869,4.869,0,0,0,5.621,3.292l24.237,41.934a4.818,4.818,0,0,0,0,6.532l-24.237,41.934A4.923,4.923,0,0,0,522.908,606.844Z" fill="#86cdd3"/>
      <path id="Path_7993" data-name="Path 7993" d="M551.75,669.582a4.926,4.926,0,0,0-1.03.112L526.5,627.785a4.878,4.878,0,1,0-8.225-4.8H469.7a4.88,4.88,0,1,0-8.256,4.764L437.2,669.694a4.891,4.891,0,1,0,0,9.555L461.448,721.2a4.877,4.877,0,1,0,8.256,4.765h48.568a4.881,4.881,0,1,0,8.225-4.8l24.223-41.91a4.889,4.889,0,1,0,1.03-9.667Zm-28.842,49.99a4.877,4.877,0,0,0-4.636,3.392H469.7a4.85,4.85,0,0,0-5.666-3.279l-24.245-41.947a4.818,4.818,0,0,0,0-6.532l24.245-41.947a4.855,4.855,0,0,0,5.666-3.279h48.568a4.875,4.875,0,0,0,5.621,3.292l24.237,41.934a4.818,4.818,0,0,0,0,6.532l-24.237,41.934A4.849,4.849,0,0,0,522.908,719.572Z" fill="#86cdd3"/>
      <path id="Path_7994" data-name="Path 7994" d="M60.79,502.136a4.843,4.843,0,0,0-1.029.113l-24.223-41.91a4.879,4.879,0,1,0-8.226-4.8H-21.256a4.876,4.876,0,0,0-4.636-3.391,4.893,4.893,0,0,0-4.9,4.89,4.849,4.849,0,0,0,1.276,3.266l-24.245,41.947a4.852,4.852,0,0,0-1.03-.113,4.893,4.893,0,0,0-4.9,4.89,4.893,4.893,0,0,0,4.9,4.89,4.916,4.916,0,0,0,1.03-.112l24.245,41.947a4.849,4.849,0,0,0-1.276,3.266,4.893,4.893,0,0,0,4.9,4.89,4.877,4.877,0,0,0,4.636-3.392H27.312a4.881,4.881,0,1,0,8.226-4.8L59.761,511.8a4.889,4.889,0,1,0,1.029-9.668ZM31.948,552.127a4.877,4.877,0,0,0-4.636,3.392H-21.256a4.877,4.877,0,0,0-4.636-3.392,4.909,4.909,0,0,0-1.029.112l-24.245-41.947a4.853,4.853,0,0,0,1.275-3.266,4.849,4.849,0,0,0-1.276-3.266l24.246-41.947a4.907,4.907,0,0,0,1.029.113,4.877,4.877,0,0,0,4.636-3.392H27.312a4.877,4.877,0,0,0,4.636,3.392,4.986,4.986,0,0,0,.985-.1L57.17,503.76a4.821,4.821,0,0,0,0,6.532L32.933,552.226A4.911,4.911,0,0,0,31.948,552.127Z" fill="#86cdd3"/>
      <path id="Path_7995" data-name="Path 7995" d="M452.895,502.136a4.859,4.859,0,0,0-1.03.113l-24.223-41.91a4.878,4.878,0,1,0-8.225-4.8H370.849a4.88,4.88,0,1,0-8.256,4.765l-24.245,41.947a4.889,4.889,0,1,0-1.03,9.667,4.916,4.916,0,0,0,1.03-.112l24.245,41.947a4.877,4.877,0,1,0,8.256,4.764h48.568a4.881,4.881,0,1,0,8.225-4.8L451.865,511.8a4.889,4.889,0,1,0,1.03-9.668Zm-28.842,49.991a4.877,4.877,0,0,0-4.636,3.392H370.849a4.855,4.855,0,0,0-5.666-3.28l-24.245-41.947a4.818,4.818,0,0,0,0-6.532l24.245-41.947a4.849,4.849,0,0,0,5.666-3.279h48.568a4.869,4.869,0,0,0,5.621,3.292l24.237,41.934a4.818,4.818,0,0,0,0,6.532l-24.237,41.934A4.919,4.919,0,0,0,424.053,552.127Z" fill="#86cdd3"/>
      <path id="Path_7996" data-name="Path 7996" d="M355,557.017a4.922,4.922,0,0,0-1.03.112L329.747,515.22a4.878,4.878,0,1,0-8.225-4.8H272.954a4.88,4.88,0,1,0-8.256,4.765l-24.245,41.946a4.89,4.89,0,1,0,0,9.555L264.7,608.631a4.877,4.877,0,1,0,8.256,4.765h48.568a4.881,4.881,0,1,0,8.225-4.8l24.223-41.91a4.889,4.889,0,1,0,1.03-9.667Zm-28.842,49.99a4.877,4.877,0,0,0-4.636,3.392H272.954a4.85,4.85,0,0,0-5.666-3.279l-24.245-41.947a4.819,4.819,0,0,0,0-6.533l24.245-41.946a4.855,4.855,0,0,0,5.666-3.279h48.568a4.874,4.874,0,0,0,5.621,3.292L351.38,558.64a4.819,4.819,0,0,0,0,6.533l-24.237,41.933A4.919,4.919,0,0,0,326.158,607.007Z" fill="#86cdd3"/>
      <path id="Path_7997" data-name="Path 7997" d="M257.788,502.136a4.85,4.85,0,0,0-1.029.113l-24.223-41.91a4.879,4.879,0,1,0-8.226-4.8H175.743a4.881,4.881,0,1,0-8.257,4.765l-24.245,41.947a4.889,4.889,0,1,0-1.029,9.667,4.914,4.914,0,0,0,1.029-.112l24.245,41.947a4.877,4.877,0,1,0,8.257,4.764H224.31a4.881,4.881,0,1,0,8.226-4.8L256.759,511.8a4.889,4.889,0,1,0,1.029-9.668Zm-28.841,49.991a4.879,4.879,0,0,0-4.637,3.392H175.743a4.855,4.855,0,0,0-5.666-3.28l-24.245-41.947a4.821,4.821,0,0,0,0-6.532l24.245-41.947a4.849,4.849,0,0,0,5.666-3.279H224.31a4.869,4.869,0,0,0,5.621,3.292l24.237,41.934a4.821,4.821,0,0,0,0,6.532l-24.237,41.934A4.909,4.909,0,0,0,228.947,552.127Z" fill="#86cdd3"/>
      <path id="Path_7998" data-name="Path 7998" d="M158.032,444.126a4.858,4.858,0,0,0-1.03.113l-24.223-41.91a4.878,4.878,0,1,0-8.225-4.8H75.986a4.88,4.88,0,1,0-8.256,4.765L43.485,444.239a4.889,4.889,0,1,0-1.029,9.667,4.916,4.916,0,0,0,1.029-.112L67.73,495.741a4.877,4.877,0,1,0,8.256,4.764h48.568a4.881,4.881,0,1,0,8.225-4.8L157,453.794a4.89,4.89,0,1,0,1.03-9.668ZM129.19,494.117a4.878,4.878,0,0,0-4.636,3.391H75.986a4.855,4.855,0,0,0-5.666-3.279L46.075,452.282a4.818,4.818,0,0,0,0-6.532L70.32,403.8a4.849,4.849,0,0,0,5.666-3.279h48.568a4.877,4.877,0,0,0,4.636,3.392,4.991,4.991,0,0,0,.985-.1l24.237,41.933a4.818,4.818,0,0,0,0,6.532l-24.237,41.934A4.919,4.919,0,0,0,129.19,494.117Z" fill="#86cdd3"/>
      <path id="Path_7999" data-name="Path 7999" d="M847.9,611.9a4.918,4.918,0,0,0-1.03.113L822.643,570.1a4.879,4.879,0,1,0-8.226-4.8H765.85a4.88,4.88,0,1,0-8.257,4.764L733.348,612.01a4.889,4.889,0,1,0,0,9.555l24.244,41.947a4.878,4.878,0,1,0,8.257,4.765h48.567a4.881,4.881,0,1,0,8.226-4.8l24.223-41.909a4.889,4.889,0,1,0,1.03-9.668Zm-28.842,49.991a4.879,4.879,0,0,0-4.637,3.392H765.85a4.855,4.855,0,0,0-5.666-3.28l-24.245-41.946a4.819,4.819,0,0,0,0-6.533l24.245-41.947a4.849,4.849,0,0,0,5.666-3.279h48.567a4.874,4.874,0,0,0,5.621,3.293l24.238,41.933a4.82,4.82,0,0,0,0,6.533l-24.237,41.933A4.91,4.91,0,0,0,819.054,661.888Z" fill="#86cdd3"/>
    </g>
    <g id="Group_5124" data-name="Group 5124" opacity="0.45">
      <path id="Path_8000" data-name="Path 8000" d="M641.158,395.562H582.827l-29.166,50.46,29.166,50.46h58.331l29.166-50.46Z" fill="#a0d6db" opacity="0.75" style="mix-blend-mode: multiply;isolation: isolate"/>
      <path id="Path_8001" data-name="Path 8001" d="M71.5,612.514H13.169L-16,662.974l29.166,50.46H71.5l29.166-50.46Z" fill="#a0d6db" opacity="0.75" style="mix-blend-mode: multiply;isolation: isolate"/>
      <path id="Path_8002" data-name="Path 8002" d="M545.582,341.727H487.251l-29.166,50.46,29.166,50.46h58.331l29.166-50.46Z" fill="#a0d6db" opacity="0.45" style="mix-blend-mode: multiply;isolation: isolate"/>
      <path id="Path_8003" data-name="Path 8003" d="M641.158,506H582.827l-29.166,50.46,29.166,50.46h58.331l29.166-50.46Z" fill="#a0d6db" opacity="0.45" style="mix-blend-mode: multiply;isolation: isolate"/>
      <path id="Path_8004" data-name="Path 8004" d="M450.464,503.707H392.133l-29.166,50.46,29.166,50.46h58.331l29.166-50.46Z" fill="#a0d6db" opacity="0.45" style="mix-blend-mode: multiply;isolation: isolate"/>
      <path id="Path_8005" data-name="Path 8005" d="M448.955,177.2H390.623l-29.166,50.46,29.166,50.46h58.331l29.166-50.46Z" fill="#a0d6db" opacity="0.25" style="mix-blend-mode: multiply;isolation: isolate"/>
      <path id="Path_8006" data-name="Path 8006" d="M165.609,233.008H107.278l-29.166,50.46,29.166,50.46h58.331l29.166-50.46Z" fill="#a0d6db" opacity="0.25" style="mix-blend-mode: multiply;isolation: isolate"/>
      <path id="Path_8007" data-name="Path 8007" d="M737.787,450.446H679.455l-29.166,50.46,29.166,50.46h58.331l29.166-50.46Z" fill="#a0d6db" opacity="0.25" style="mix-blend-mode: multiply;isolation: isolate"/>
      <path id="Path_8008" data-name="Path 8008" d="M357.713,662.974H299.382l-29.166,50.46,29.166,50.46h58.331l29.166-50.46Z" fill="#a0d6db" opacity="0.25" style="mix-blend-mode: multiply;isolation: isolate"/>
      <path id="Path_8009" data-name="Path 8009" d="M166.11,559.164H107.779l-29.166,50.46,29.166,50.46H166.11l29.166-50.46Z" fill="#a0d6db" opacity="0.25" style="mix-blend-mode: multiply;isolation: isolate"/>
      <path id="Path_8010" data-name="Path 8010" d="M353.845,341.727H295.514l-29.166,50.46,29.166,50.46h58.331l29.166-50.46Z" fill="#a0d6db" opacity="0.25" style="mix-blend-mode: multiply;isolation: isolate"/>
      <path id="Path_8011" data-name="Path 8011" d="M449.464,285.923H391.132l-29.166,50.46,29.166,50.46h58.331l29.166-50.46Z" fill="#a0d6db" opacity="0.25" style="mix-blend-mode: multiply;isolation: isolate"/>
      <path id="Path_8012" data-name="Path 8012" d="M545.582,450.446H487.251l-29.166,50.46,29.166,50.46h58.331l29.166-50.46Z" fill="#a0d6db" opacity="0.25" style="mix-blend-mode: multiply;isolation: isolate"/>
      <path id="Path_8013" data-name="Path 8013" d="M71.992,394.562H13.661L-15.5,445.022l29.166,50.46H71.992l29.166-50.46Z" fill="#a0d6db" opacity="0.25" style="mix-blend-mode: multiply;isolation: isolate"/>
      <path id="Path_8014" data-name="Path 8014" d="M353.845,233.008H295.514l-29.166,50.46,29.166,50.46h58.331l29.166-50.46Z" fill="#a0d6db" opacity="0.75" style="mix-blend-mode: multiply;isolation: isolate"/>
      <path id="Path_8015" data-name="Path 8015" d="M448.955,394.562H390.623l-29.166,50.46,29.166,50.46h58.331l29.166-50.46Z" fill="#a0d6db" opacity="0.75" style="mix-blend-mode: multiply;isolation: isolate"/>
      <path id="Path_8016" data-name="Path 8016" d="M71.5,286.922H13.169L-16,337.383l29.166,50.46H71.5l29.166-50.46Z" fill="#a0d6db" opacity="0.75" style="mix-blend-mode: multiply;isolation: isolate"/>
      <path id="Path_8017" data-name="Path 8017" d="M260.228,613.969H201.9l-29.166,50.46L201.9,714.89h58.331l29.166-50.46Z" fill="#a0d6db" opacity="0.75" style="mix-blend-mode: multiply;isolation: isolate"/>
      <path id="Path_8018" data-name="Path 8018" d="M166.11,450.446H107.779l-29.166,50.46,29.166,50.46H166.11l29.166-50.46Z" fill="#a0d6db" opacity="0.75" style="mix-blend-mode: multiply;isolation: isolate"/>
      <path id="Path_8019" data-name="Path 8019" d="M259.727,286.922H201.4l-29.166,50.46,29.166,50.46h58.331l29.166-50.46Z" fill="#a0d6db" opacity="0.45" style="mix-blend-mode: multiply;isolation: isolate"/>
      <path id="Path_8020" data-name="Path 8020" d="M166.11,341.727H107.779l-29.166,50.46,29.166,50.46H166.11l29.166-50.46Z" fill="#a0d6db" opacity="0.45" style="mix-blend-mode: multiply;isolation: isolate"/>
      <path id="Path_8021" data-name="Path 8021" d="M71.5,502.2H13.169L-16,552.662l29.166,50.46H71.5l29.166-50.46Z" fill="#a0d6db" opacity="0.45" style="mix-blend-mode: multiply;isolation: isolate"/>
      <path id="Path_8022" data-name="Path 8022" d="M165.609,667.883H107.278l-29.166,50.46,29.166,50.46h58.331l29.166-50.46Z" fill="#a0d6db" opacity="0.45" style="mix-blend-mode: multiply;isolation: isolate"/>
      <path id="Path_8023" data-name="Path 8023" d="M353.845,450.446H295.514l-29.166,50.46,29.166,50.46h58.331l29.166-50.46Z" fill="#a0d6db" opacity="0.45" style="mix-blend-mode: multiply;isolation: isolate"/>
    </g>
    <path id="Path_8024" data-name="Path 8024" d="M231.668,156.544h-22.22l-.035-2.992V134.313H187.9v22.23H165.648V178.03H187.9v22.23h21.51V178.03h22.255Z" fill="#a0d6db" style="mix-blend-mode: multiply;isolation: isolate"/>
    <path id="Path_8025" data-name="Path 8025" d="M357.689,272.725H335.47l-.035-2.992V250.495h-21.51v22.23H291.669v21.487h22.255v22.23h21.51v-22.23h22.255Z" fill="#a0d6db" style="mix-blend-mode: multiply;isolation: isolate"/>
    <path id="Path_8026" data-name="Path 8026" d="M741.631,490.163h-22.22l-.035-2.992V467.932h-21.51v22.23H675.611v21.487h22.255v22.23h21.51v-22.23h22.255Z" transform="translate(-735 149)" fill="#a0d6db" style="mix-blend-mode: multiply;isolation: isolate"/>
    <path id="Path_8027" data-name="Path 8027" d="M627.446,605.881h-22.22l-.035-2.992V583.651H583.68v22.23H561.425v21.487H583.68V649.6h21.51v-22.23h22.255Z" fill="#a0d6db" style="mix-blend-mode: multiply;isolation: isolate"/>
    <path id="Path_8028" data-name="Path 8028" d="M134.456,438.273h-22.22l-.035-2.992V416.043H90.691v22.23H68.436v21.487H90.691v22.23H112.2v-22.23h22.255Z" transform="translate(427 -100)" fill="#a0d6db" style="mix-blend-mode: multiply;isolation: isolate"/>
  </g>
</svg>
