<svg xmlns="http://www.w3.org/2000/svg" xmlns:xlink="http://www.w3.org/1999/xlink" width="1070.415" height="899.753" viewBox="0 0 1070.415 899.753">
  <defs>
    <linearGradient id="linear-gradient" x1="-0.265" y1="0.935" x2="1.263" y2="-0.05" gradientUnits="objectBoundingBox">
      <stop offset="0.013" stop-color="#6ebad4"/>
      <stop offset="1" stop-color="#752abf"/>
    </linearGradient>
  </defs>
  <path id="Path_7981" data-name="Path 7981" d="M-2184.47,921.554c-25.635,54.641-69.425,96.2-120.394,124.645a368.527,368.527,0,0,1-90.55,35.435c-88.086,21.715-178.55-12.92-266.3,6.509-71.2,15.723-105.7,90.973-166.259,126.027-71.435,41.3-166.554,29.7-235.794-10.346-44.811-25.932-79.705-59.756-105.522-98.963-59.052-89.526-70.982-207.08-46.521-322.57,39.758-187.465,152.763-437.778,360.279-441.963,71.171-1.42,131.064,42.717,193.9,71.806,65.25,30.221,141.494,32.991,210.586,51.871,66.933,18.3,135.183,58.02,189.036,111.589C-2172.87,664.319-2123.221,791.086-2184.47,921.554Z" transform="translate(3227.764 -340.295)" fill="url(#linear-gradient)"/>
</svg>
